# xmcd
#
# Track frame offsets: 
#        150
#        16207
#        40555
#        65915
#        89365
#        111830
#
# Disc length: 1811 seconds
#
# Revision: 4
# Processed by: cddbd v1.5.2PL0 Copyright (c) Steve Scherf et al.
# Submitted via: ExactAudioCopyFreeDBPlugin 1.0
#
DISCID=46071106
DTITLE=Chumbawamba - Tubthumping (Single)
DYEAR=1997
DGENRE=Electronic - Breakbeat, Downtempo, Hard Trance
TTITLE0=Tubthumping
TTITLE1=Tubthumping (Butthumping Mix)
TTITLE2=Tubthumping (Danny Boy Mix)
TTITLE3=Tubthumping (Mawr Mix - Tubthumping (MAWR Mix - Pablo and Lawrie
TTITLE3=)
TTITLE4=Tubthumping (Timeshard Mix)
TTITLE5=Tubthumping (Gunshot Mix)
EXTD=
EXTT0=
EXTT1=
EXTT2=
EXTT3=
EXTT4=
EXTT5=
PLAYORDER=
